PathFileType	4	(X/Y/Z)	RBDS012\RBDS012runT45.trc
DataRate	CameraRate	NumFrames	NumMarkers	Units	OrigDataRate	OrigDataStartFrame	OrigNumFrames
150.000000	150.000000	4	33	mm	150.000000	3375	4500
Frame#	Time	L.ASIS			L.Heel.Bottom			L.Heel.Lateral			L.Heel.Top			L.Iliac.Crest			L.MT1			L.MT5			L.PSIS			L.Shank.Bottom.Lateral			L.Shank.Bottom.Medial			L.Shank.Top.Lateral			L.Shank.Top.Medial			L.Thigh.Bottom.Lateral			L.Thigh.Bottom.Medial			L.Thigh.Top.Lateral			L.Thigh.Top.Medial			R.ASIS			R.ASY			R.Heel.Bottom			R.Heel.Lateral			R.Heel.Top			R.Iliac.Crest			R.MT1			R.MT5			R.PSIS			R.Shank.Bottom.Lateral			R.Shank.Bottom.Medial			R.Shank.Top.Lateral			R.Shank.Top.Medial			R.Thigh.Bottom.Lateral			R.Thigh.Bottom.Medial			R.Thigh.Top.Lateral			R.Thigh.Top.Medial			
		X1	Y1	Z1	X2	Y2	Z2	X3	Y3	Z3	X4	Y4	Z4	X5	Y5	Z5	X6	Y6	Z6	X7	Y7	Z7	X8	Y8	Z8	X9	Y9	Z9	X10	Y10	Z10	X11	Y11	Z11	X12	Y12	Z12	X13	Y13	Z13	X14	Y14	Z14	X15	Y15	Z15	X16	Y16	Z16	X17	Y17	Z17	X18	Y18	Z18	X19	Y19	Z19	X20	Y20	Z20	X21	Y21	Z21	X22	Y22	Z22	X23	Y23	Z23	X24	Y24	Z24	X25	Y25	Z25	X26	Y26	Z26	X27	Y27	Z27	X28	Y28	Z28	X29	Y29	Z29	X30	Y30	Z30	X31	Y31	Z31	X32	Y32	Z32	X33	Y33	Z33	

3376	22.5	2334.12876256838	985.1892430294267	868.3506918661825	1559.154031332553	588.5824180317917	968.6790846016446	1563.843557904771	561.9867121500012	917.9355088652885	1606.647391881054	574.2996447304245	963.5896791758522	2310.272619861005	1074.792804787755	847.6508887979104	1536.596474856325	358.3013037986973	992.7013919420217	1543.702670531255	399.9617390669397	876.3217931002146	2182.981660364827	1068.150606668101	960.8630153057919	1688.577127851078	513.0679883541409	893.9036481116956	1685.322036833957	555.9713680709521	929.0425896168688	1764.534920829544	533.8348561374992	877.005110115099	1762.289763207263	575.4698210978736	911.0353812878536	2122.462631519138	623.7021982277585	839.8242943568634	2059.529545554908	648.6661419082233	867.5484803029694	2151.504816661502	728.7224940518117	821.2506309712138	2094.595001684917	752.0985091975136	851.3908168767945	2333.768529035748	1001.075807291758	1129.559429854175	2677.762995825944	149.9957722087626	1070.850738343245	2524.595681501148	22.22456418111101	1054.025528420374	2537.510760514341	42.89397394591773	1092.941200597138	2515.659208105403	71.5333896603281	1056.318643692068	2294.900020723438	1070.025526124441	1171.87222996868	2724.405282194632	125.9138179903469	1020.569093161636	2698.249077744022	101.5199407024455	1134.446293773038	2175.684764457293	1055.238659879486	1068.965378893469	2532.361305743961	190.9364308019766	1112.396892697501	2494.44146803719	188.2833808385645	1077.26558274304	2505.787793215974	270.1367721010529	1131.790155927372	2466.011952107121	262.2949343460218	1096.264946761683	2416.111479980446	613.7952111948196	1161.553831299467	2363.695380111612	585.4610938188241	1118.638221451946	2351.896897488383	700.7782185348177	1178.354171741249	2302.122493839903	675.4417842451712	1137.382561586787	
3377	22.50666666666667	2334.647989807162	982.1741472961191	868.0237706126219	1572.716016867159	611.9545394672358	967.3684421373989	1575.820320327088	584.2344387254159	916.7888856353567	1619.279045549232	594.6108511365828	962.6324086888347	2308.857163626108	1071.92927979104	846.7818982802388	1535.884486464561	383.647463721355	995.2032489845809	1545.944726436028	423.023044096988	877.9808486079479	2182.439898420096	1062.878418281869	961.8545199754122	1696.815211774016	527.0580667435441	893.7468626379049	1696.054071850124	570.6638549302802	928.119069149944	1773.837244647126	543.0143683161217	876.4764308156704	1774.027436299081	585.249511694954	909.7219869832252	2128.198177172715	616.570984654964	838.4433569683987	2065.479751407424	640.0163908323501	867.6851506616329	2154.973974156745	722.326263155607	820.6227932305829	2098.271574105652	744.3317470920318	852.0763844125426	2333.020563724016	995.498253103339	1130.122539067892	2672.110550817208	142.6802637121149	1069.806970290749	2514.930486950798	22.18323129548362	1054.017263943746	2528.808942631839	42.48742073406038	1092.610462304854	2508.362527027767	71.29230007254546	1055.569513998891	2293.755340561265	1064.385841140454	1172.026523656169	2717.087721859134	116.8159425874697	1019.492823016408	2690.590200840871	94.31914742589261	1133.337158001292	2174.142896100022	1048.866653866744	1069.527153900767	2528.056024933217	186.5944795956986	1111.96914686978	2490.034691813836	184.5121219017308	1076.927491899801	2502.782152084274	266.0718596161799	1131.283151186253	2462.857954955161	258.826119677866	1095.919021434762	2416.796562107956	610.0421356854197	1161.09712213416	2364.290332396285	581.5643867660889	1118.387287863573	2352.295353195903	696.7071139335987	1178.329366051413	2302.524855242985	671.3747850462398	1137.339570022889	
3378	22.51333333333334	2334.966388960703	978.627103154074	867.7827566909575	1588.747627663859	633.3313113557919	965.9427708734881	1590.249453248876	604.5919955569467	915.5075510217707	1634.267625205409	613.0904595728462	961.4501612049643	2307.721526901121	1068.234453636123	846.0152410242581	1538.440279520161	407.6678116217142	997.4395387104603	1551.031920437892	444.7172345624605	879.3936116652744	2181.599196811726	1056.772070838159	962.4021248540249	1707.139061537567	539.7464769038853	893.3892333762002	1708.888163228795	583.8464713696377	927.0749330438061	1784.885233529276	550.9822321894196	875.7483899961999	1787.503843156161	593.6169727305635	908.2487412584921	2134.183210786931	608.9377936275653	836.9982315380358	2071.762714665253	630.7353911845667	867.9107185014933	2158.499872917049	715.4269529323822	819.9865698961942	2102.053791790132	735.9571106243653	852.8391048766781	2332.149632715018	989.8046207836805	1130.981926975972	2662.327706084324	134.07776819249	1068.403784271185	2499.835165975382	22.81193073039161	1053.675527593652	2514.857596677095	42.66641466811834	1091.890373234113	2496.224043727205	71.76024788744984	1054.347633877302	2292.200996180456	1058.359504919453	1172.33392384659	2705.303028567789	105.8940488116371	1018.174263300852	2678.159446709031	85.89652829597293	1132.033579334386	2172.357347596025	1042.083890126365	1069.682829755785	2520.55525010542	182.3842016043241	1111.208462453074	2482.390061753971	181.3851205568599	1076.37973462448	2497.606912217044	262.272935157989	1130.540541952057	2457.456444073006	256.1908323369382	1095.431264404374	2417.718224830564	606.6075011084696	1160.597496726594	2365.158806698547	577.8755890302801	1118.118538699348	2352.767829999646	692.9025509502945	1178.095172321032	2303.050591232556	667.3963564131063	1137.163818674317	
3379	22.52	2335.047598902418	974.5176412230103	867.6908986924161	1606.90128323879	652.4545656155975	964.4888240525801	1606.817751615318	622.8259994119184	914.1811704946701	1651.302060232782	629.5324433296249	960.1256440732629	2306.861452524678	1063.689178109639	845.3813833920462	1544.16213595748	429.9534325464035	999.2943772869886	1558.836836486471	464.7448249447369	880.4952952036203	2180.450693712948	1049.967578429859	962.4389666064548	1719.37297235202	550.9994079278634	892.8570705383618	1723.63747446146	595.3870177015895	925.9611373022178	1797.52488840422	557.656553853904	874.8461442828526	1802.554076737403	600.4881504898143	906.6721664828967	2140.496636536864	600.9170772036528	835.5203182639317	2078.416332236071	620.9504381799607	868.1535559199674	2162.173169772161	708.1191398738442	819.3519634682704	2105.985811069188	727.0780472747887	853.5887263647907	2331.130801292683	984.1128459258491	1132.169219775403	2648.651247263554	124.7574522116262	1066.754902779983	2480.044939990655	23.94327840205561	1053.126665136857	2496.309827567812	43.30068661422743	1090.932590669457	2479.724088268951	72.76538024541193	1052.848587600982	2290.269402461378	1052.004191821373	1172.797101979067	2689.412356330052	93.97227385250369	1016.710067495974	2661.454993231096	76.87465300807513	1130.668437187803	2170.385492597974	1035.098432142304	1069.384492824379	2510.106800298798	178.4789561840847	1110.231735992373	2471.7410987854	179.0185380559203	1075.773988953384	2490.412999969246	258.8534163540458	1129.681423245852	2449.953505054008	254.4443178500466	1094.951689356904	2418.646277262029	603.3817792427031	1160.132336008128	2366.11463961763	574.3817198265061	1117.782502130175	2353.132827902827	689.2928611375256	1177.732167978971	2303.548103904082	663.5174531294745	1136.843803754004	
